<svg width="39" height="39" viewBox="0 0 39 39" fill="none" xmlns="http://www.w3.org/2000/svg">
<rect x="1" y="1" width="37" height="37" rx="2" fill="white" stroke="#E5E5E5" stroke-width="2"/>
<path d="M29.7001 12.2843C29.5105 12.1021 29.2557 12 28.9903 12C28.7249 12 28.47 12.1021 28.2805 12.2843L14.7032 25.6028L9.73472 20.729C9.64045 20.6358 9.52831 20.5618 9.40474 20.5113C9.28118 20.4608 9.14865 20.4348 9.01479 20.4348C8.88093 20.4348 8.7484 20.4608 8.62483 20.5113C8.50127 20.5618 8.38912 20.6358 8.29486 20.729C8.106 20.9154 8 21.1675 8 21.4302C8 21.693 8.106 21.9451 8.29486 22.1315L13.9833 27.7115C14.0781 27.8037 14.1904 27.8767 14.314 27.9262C14.4375 27.9757 14.5698 28.0007 14.7032 28C14.9692 27.9989 15.2242 27.8953 15.413 27.7115L29.7001 13.6968C29.7951 13.6043 29.8705 13.4943 29.922 13.3731C29.9735 13.2519 30 13.1218 30 12.9905C30 12.8592 29.9735 12.7292 29.922 12.608C29.8705 12.4868 29.7951 12.3768 29.7001 12.2843V12.2843Z" fill="#D22856"/>
</svg>
