<svg width="61" height="40" viewBox="0 0 61 40" fill="none" xmlns="http://www.w3.org/2000/svg">
<path d="M10.494 33.7153C9.76494 33.7101 9.06754 33.4218 8.55389 32.9131C8.04024 32.4044 7.752 31.7167 7.75202 31C7.75202 31.7184 7.4624 32.4076 6.94658 32.9166C6.43077 33.4255 5.7308 33.7127 5 33.7153C5.7308 33.718 6.43077 34.0052 6.94658 34.5141C7.4624 35.0231 7.75202 35.7122 7.75202 36.4307C7.752 35.7139 8.04024 35.0263 8.55389 34.5176C9.06754 34.0089 9.76494 33.7206 10.494 33.7153Z" fill="#283645"/>
<path d="M38.5141 19.7153C37.7815 19.7153 37.079 19.4293 36.561 18.92C36.043 18.4108 35.752 17.7202 35.752 17C35.752 17.7184 35.4624 18.4076 34.9466 18.9166C34.4308 19.4255 33.7308 19.7127 33 19.7153C33.7299 19.7153 34.4299 20.0004 34.946 20.5078C35.4621 21.0151 35.752 21.7033 35.752 22.4208C35.7547 21.7024 36.0469 21.0143 36.5646 20.5072C37.0823 20.0001 37.7833 19.7153 38.5141 19.7153V19.7153Z" fill="#283645"/>
<path d="M43.4036 18.5475C43.6547 18.5475 43.8957 18.5475 44.1368 18.5475C43.9184 18.1796 43.6063 17.8741 43.2311 17.6611C42.8559 17.4481 42.4307 17.335 41.9975 17.333C41.5793 17.3327 41.1716 17.2041 40.8313 16.9652C40.491 16.7262 40.2351 16.3888 40.0992 16C39.3754 16.2053 38.6727 16.4764 38 16.8097H38.1908C38.7236 16.8097 39.2345 17.0177 39.6113 17.3881C39.988 17.7584 40.1996 18.2607 40.1996 18.7845C40.2046 18.8799 40.2046 18.9754 40.1996 19.0708C41.2256 18.7033 42.3119 18.5259 43.4036 18.5475V18.5475Z" fill="#D22856"/>
<path d="M51.0395 15.4334C50.4464 15.4347 49.8589 15.321 49.3106 15.0988C48.7623 14.8766 48.264 14.5502 47.8442 14.1384C47.4243 13.7266 47.0912 13.2374 46.864 12.6989C46.6367 12.1603 46.5197 11.583 46.5197 11C46.5171 12.1767 46.0397 13.3044 45.1924 14.1355C44.3451 14.9667 43.197 15.4334 42 15.4334C43.1979 15.436 44.346 15.905 45.193 16.7377C46.0401 17.5704 46.5171 18.6991 46.5197 19.8767C46.5197 18.6983 46.9959 17.5681 47.8435 16.7348C48.6912 15.9016 49.8408 15.4334 51.0395 15.4334V15.4334Z" fill="#283645"/>
<path d="M60.7332 27.6472L55.5406 6.56621C55.179 4.24582 52.9291 0 46.9028 0C46.5033 0 46.1201 0.156044 45.8375 0.433804C45.555 0.711564 45.3962 1.08829 45.3962 1.4811C45.3962 1.87391 45.555 2.25063 45.8375 2.52839C46.1201 2.80615 46.5033 2.9622 46.9028 2.9622C51.7741 2.9622 52.4973 6.6452 52.5676 7.05003L57.3484 26.5018H55.2493C55.0321 24.805 54.4439 23.1744 53.525 21.7222C52.6061 20.2701 51.3783 19.0307 49.926 18.0892C49.4712 18.2774 49.0829 18.5932 48.8096 18.9971C48.5363 19.401 48.3901 19.8751 48.3893 20.3602C48.3948 20.4457 48.3948 20.5314 48.3893 20.6169C49.6107 21.4404 50.6131 22.5401 51.3122 23.8236C52.0113 25.1072 52.3867 26.537 52.4069 27.9928C52.4008 28.4894 52.3538 28.9847 52.2663 29.4739C51.9374 31.5714 50.8559 33.484 49.2173 34.8657C47.5786 36.2474 45.4911 37.007 43.3322 37.007C41.1734 37.007 39.0859 36.2474 37.4472 34.8657C35.8086 33.484 34.727 31.5714 34.3982 29.4739C34.3107 28.9847 34.2637 28.4894 34.2576 27.9928C34.2733 26.6229 34.5993 25.2737 35.2118 24.0432C34.7037 24.0081 34.2282 23.7847 33.8814 23.4181C33.5346 23.0515 33.3424 22.569 33.3436 22.0684C33.3453 21.889 33.277 21.7159 33.1528 21.5846C32.181 23.0752 31.5662 24.7633 31.3549 26.5215H29.4868C29.1663 23.6174 27.7658 20.9319 25.5542 18.9809C23.3427 17.0298 20.4759 15.9507 17.5044 15.9507C14.5329 15.9507 11.6662 17.0298 9.45463 18.9809C7.24307 20.9319 5.84259 23.6174 5.5221 26.5215H3.44302L8.23394 7.05003C8.29421 6.6452 9.0475 2.9622 13.8987 2.9622C14.2983 2.9622 14.6815 2.80615 14.964 2.52839C15.2465 2.25063 15.4053 1.87391 15.4053 1.4811C15.4053 1.08829 15.2465 0.711564 14.964 0.433804C14.6815 0.156044 14.2983 0 13.8987 0C7.87236 0 5.62254 4.24582 5.26096 6.56621L0.0582358 27.6472C-0.00612168 27.8617 -0.0173251 28.0883 0.0255611 28.308C0.0684473 28.5277 0.164178 28.7341 0.304759 28.91C0.44534 29.0859 0.62669 29.2262 0.833664 29.3191C1.04064 29.4121 1.26723 29.455 1.49451 29.4443H5.51206C5.59378 30.055 5.72135 30.659 5.89372 31.2512C5.95717 31.1429 5.99172 31.0206 5.99416 30.8957C5.99416 30.372 6.2058 29.8697 6.58252 29.4993C6.95923 29.129 7.47017 28.9209 8.00293 28.9209C8.16525 28.9248 8.32675 28.9446 8.48504 28.9802C8.44252 28.6526 8.41904 28.323 8.41473 27.9928C8.41742 27.4964 8.46109 27.0011 8.5453 26.5117C8.86708 24.4074 9.94626 22.4864 11.5867 21.0981C13.2271 19.7097 15.3198 18.9461 17.4843 18.9461C19.6489 18.9461 21.7416 19.7097 23.382 21.0981C25.0224 22.4864 26.1016 24.4074 26.4234 26.5117C26.5076 27.0011 26.5513 27.4964 26.554 27.9928C26.5638 29.6507 26.1017 31.2782 25.2199 32.6915C24.3381 34.1047 23.0717 35.2472 21.5639 35.9899C20.0561 36.7326 18.3671 37.0458 16.6877 36.8942C15.0083 36.7425 13.4056 36.132 12.0607 35.1317C11.6982 35.4411 11.235 35.6128 10.755 35.6155C10.5569 35.6181 10.3679 35.6973 10.2288 35.8359C10.0897 35.9745 10.0117 36.1613 10.0117 36.356C10.009 36.6321 9.94739 36.9046 9.83092 37.1558C11.9797 38.9066 14.6835 39.8636 17.4743 39.8613C20.4223 39.8738 23.2728 38.8236 25.4864 36.9095C27.7 34.9953 29.1232 32.35 29.4868 29.4739H31.3147C31.6456 32.3691 33.0499 35.0431 35.2593 36.9848C37.4688 38.9266 40.3285 40 43.2921 40C46.2557 40 49.1154 38.9266 51.3248 36.9848C53.5343 35.0431 54.9385 32.3691 55.2694 29.4739H59.2869C59.5191 29.4904 59.7519 29.4503 59.9647 29.3573C60.1774 29.2642 60.3635 29.121 60.5065 28.9404C60.6495 28.7598 60.7451 28.5473 60.7846 28.3217C60.8241 28.0961 60.8065 27.8645 60.7332 27.6472Z" fill="#D22856"/>
</svg>
