<svg width="61" height="40" fill="none" xmlns="http://www.w3.org/2000/svg"><path d="M10.494 33.715a2.786 2.786 0 0 1-1.94-.802A2.692 2.692 0 0 1 7.752 31c0 .718-.29 1.408-.805 1.917A2.786 2.786 0 0 1 5 33.715c.73.003 1.43.29 1.947.8.515.508.805 1.197.805 1.916 0-.717.288-1.405.802-1.913a2.786 2.786 0 0 1 1.94-.803ZM38.514 19.715a2.786 2.786 0 0 1-1.953-.795 2.692 2.692 0 0 1-.809-1.92c0 .718-.29 1.408-.805 1.917a2.786 2.786 0 0 1-1.947.798c.73 0 1.43.285 1.946.793.516.507.806 1.195.806 1.913a2.693 2.693 0 0 1 .813-1.914 2.786 2.786 0 0 1 1.95-.792Z" fill="#283645"/><path d="M43.404 18.547h.733a2.47 2.47 0 0 0-.906-.886 2.523 2.523 0 0 0-1.233-.328c-.419 0-.826-.129-1.167-.368A1.978 1.978 0 0 1 40.1 16a12.27 12.27 0 0 0-2.099.81h.19c.534 0 1.044.208 1.421.578s.589.873.589 1.396c.005.096.005.191 0 .287a8.977 8.977 0 0 1 3.204-.524Z" fill="#D22856"/><path d="M51.04 15.433a4.578 4.578 0 0 1-1.73-.334 4.515 4.515 0 0 1-1.466-.96 4.428 4.428 0 0 1-.98-1.44A4.368 4.368 0 0 1 46.52 11a4.406 4.406 0 0 1-1.328 3.136A4.56 4.56 0 0 1 42 15.433a4.57 4.57 0 0 1 3.193 1.305 4.415 4.415 0 0 1 1.327 3.139c0-1.179.476-2.309 1.323-3.142a4.56 4.56 0 0 1 3.196-1.302Z" fill="#283645"/><path d="m60.733 27.647-5.192-21.08C55.179 4.245 52.929 0 46.903 0c-.4 0-.783.156-1.066.434a1.469 1.469 0 0 0-.44 1.047c0 .393.158.77.44 1.047a1.52 1.52 0 0 0 1.066.434c4.871 0 5.594 3.683 5.665 4.088l4.78 19.452H55.25a11.721 11.721 0 0 0-1.724-4.78 11.946 11.946 0 0 0-3.599-3.633 2.502 2.502 0 0 0-1.116.908c-.274.404-.42.878-.42 1.363.005.086.005.171 0 .257a9.148 9.148 0 0 1 2.922 3.207 8.974 8.974 0 0 1 1.095 4.169 9.042 9.042 0 0 1-.14 1.48 8.85 8.85 0 0 1-3.05 5.393 9.132 9.132 0 0 1-5.885 2.141 9.132 9.132 0 0 1-5.885-2.141 8.849 8.849 0 0 1-3.049-5.392 9.042 9.042 0 0 1-.14-1.481c.015-1.37.341-2.72.954-3.95a2.023 2.023 0 0 1-1.33-.625 1.957 1.957 0 0 1-.538-1.35.694.694 0 0 0-.191-.483 11.566 11.566 0 0 0-1.798 4.936h-1.868a11.782 11.782 0 0 0-3.933-7.54 12.17 12.17 0 0 0-8.05-3.03 12.17 12.17 0 0 0-8.05 3.03 11.782 11.782 0 0 0-3.932 7.54H3.443L8.233 7.05c.061-.405.814-4.088 5.666-4.088.4 0 .783-.156 1.065-.434.282-.277.441-.654.441-1.047 0-.393-.159-.77-.441-1.047A1.52 1.52 0 0 0 13.899 0C7.872 0 5.623 4.246 5.26 6.566L.058 27.647a1.38 1.38 0 0 0 .247 1.263c.14.176.322.316.529.41.207.092.433.135.66.124h4.018c.082.611.21 1.215.382 1.807a.731.731 0 0 0 .1-.355c0-.524.212-1.026.589-1.397.376-.37.887-.578 1.42-.578.162.004.324.024.482.06a8.536 8.536 0 0 1-.07-.988c.002-.497.046-.992.13-1.481a8.848 8.848 0 0 1 3.042-5.414 9.131 9.131 0 0 1 5.897-2.152c2.165 0 4.258.764 5.898 2.152a8.848 8.848 0 0 1 3.041 5.414c.085.49.128.984.131 1.48a8.775 8.775 0 0 1-1.334 4.7 8.984 8.984 0 0 1-3.656 3.298 9.174 9.174 0 0 1-9.503-.858 2.03 2.03 0 0 1-1.306.483.76.76 0 0 0-.526.22.734.734 0 0 0-.217.521 1.946 1.946 0 0 1-.181.8 12.088 12.088 0 0 0 7.643 2.705 12.174 12.174 0 0 0 8.012-2.951 11.789 11.789 0 0 0 4-7.436h1.829a11.784 11.784 0 0 0 3.944 7.51A12.171 12.171 0 0 0 43.292 40c2.964 0 5.823-1.073 8.033-3.015a11.784 11.784 0 0 0 3.944-7.511h4.018c.232.016.465-.024.678-.117.212-.093.398-.236.541-.417a1.38 1.38 0 0 0 .227-1.293Z" fill="#D22856"/></svg>